<?xml version="1.0" standalone="no"?>
<!DOCTYPE svg PUBLIC "-//W3C//DTD SVG 20010904//EN"
 "http://www.w3.org/TR/2001/REC-SVG-20010904/DTD/svg10.dtd">
<svg version="1.0" xmlns="http://www.w3.org/2000/svg"
 width="820.000000pt" height="585.000000pt" viewBox="0 0 820.000000 585.000000"
 preserveAspectRatio="xMidYMid meet">
<metadata>
Created by potrace 1.15, written by Peter Selinger 2001-2017
</metadata>
<g transform="translate(0.000000,585.000000) scale(0.100000,-0.100000)"
fill="#000000" stroke="none">
<path d="M1121 4736 c2 -2 83 -46 179 -98 546 -296 683 -371 965 -523 171 -92
391 -211 490 -265 214 -116 963 -522 1225 -663 102 -55 190 -104 197 -109 12
-9 24 -3 233 110 97 53 93 43 59 135 -39 106 -90 217 -100 217 -4 0 -45 -18
-90 -40 -46 -22 -88 -40 -94 -40 -10 0 -244 109 -705 327 -52 25 -122 58 -155
73 -96 44 -206 96 -580 273 -307 145 -470 222 -980 461 l-310 146 -169 0 c-93
0 -167 -2 -165 -4z"/>
<path d="M1996 4726 c11 -8 46 -26 78 -40 31 -14 69 -34 84 -44 15 -11 61 -37
102 -59 41 -22 145 -78 230 -125 85 -47 326 -177 535 -290 209 -114 555 -301
769 -417 214 -116 394 -211 400 -211 6 0 41 17 78 38 l67 38 -48 81 c-27 45
-79 121 -114 170 l-65 88 -114 52 c-62 28 -291 136 -508 238 -217 103 -426
202 -465 220 -38 18 -157 74 -263 124 -106 50 -196 91 -200 91 -4 0 -34 14
-66 30 l-59 30 -231 0 c-203 0 -228 -2 -210 -14z"/>
<path d="M4750 4651 l-185 -88 -3 -182 c-1 -99 1 -181 6 -181 4 0 12 4 17 9 6
6 39 26 75 45 36 19 64 39 63 45 -2 6 3 8 11 5 10 -4 795 411 815 432 2 2
-135 4 -305 3 l-309 -1 -185 -87z"/>
<path d="M5730 4646 c-107 -51 -414 -195 -682 -321 l-488 -228 0 -179 c0 -98
3 -178 8 -178 4 0 32 14 62 31 30 17 145 79 255 139 110 59 328 177 485 262
157 85 438 237 625 338 187 101 358 194 380 207 l40 23 -245 -1 -245 0 -195
-93z"/>
<path d="M2906 4700 c13 -13 1027 -561 1030 -557 4 4 -108 105 -190 171 -169
135 -403 262 -606 329 -117 39 -247 70 -234 57z"/>
<path d="M6800 4683 c-8 -3 -58 -26 -110 -51 -52 -24 -160 -75 -240 -112 -185
-87 -280 -131 -515 -243 -104 -49 -246 -115 -315 -147 -69 -32 -168 -78 -220
-103 -52 -24 -212 -99 -355 -167 -143 -67 -311 -146 -372 -175 l-113 -54 0
-181 0 -182 63 35 c34 19 148 81 252 138 105 56 264 143 355 192 91 49 262
141 380 204 118 64 229 123 245 133 17 10 59 34 95 53 36 19 229 124 430 232
201 109 431 233 513 277 81 44 147 81 147 83 0 2 -35 17 -77 33 -85 33 -140
45 -163 35z"/>
<path d="M880 4471 l0 -70 78 -42 c88 -48 123 -67 322 -174 80 -43 188 -101
240 -130 52 -29 176 -97 275 -151 l180 -98 250 -6 c138 -3 251 -6 252 -6 0 1
-47 23 -105 51 -59 27 -174 82 -257 121 -82 39 -213 101 -290 137 -171 79
-286 134 -520 244 -99 47 -231 110 -294 139 -62 30 -117 54 -122 54 -5 0 -9
-31 -9 -69z"/>
<path d="M7070 4347 c-119 -56 -258 -122 -310 -146 -52 -24 -180 -84 -285
-133 -104 -49 -244 -115 -310 -146 -66 -31 -124 -59 -128 -62 -4 -4 35 -10 88
-14 56 -4 128 -17 174 -31 l78 -25 219 118 c532 287 804 437 804 444 0 11 -94
98 -105 97 -5 0 -107 -46 -225 -102z"/>
<path d="M7520 4096 c-25 -13 -108 -53 -185 -89 -77 -36 -266 -125 -420 -197
-154 -73 -297 -139 -317 -148 -21 -9 -38 -20 -38 -25 0 -4 8 -24 18 -45 11
-20 25 -58 32 -84 7 -27 14 -48 17 -48 2 0 14 6 26 14 12 8 130 72 262 144
132 71 265 143 295 160 30 16 136 73 235 127 99 53 184 101 188 105 11 10 -40
110 -56 110 -6 0 -32 -11 -57 -24z"/>
<path d="M882 4008 l3 -73 130 -71 c72 -39 225 -122 340 -184 272 -146 299
-161 430 -233 61 -33 129 -70 153 -83 l42 -23 0 112 0 113 -242 114 c-134 62
-297 139 -363 171 -342 162 -486 229 -491 229 -2 0 -4 -33 -2 -72z"/>
<path d="M7665 3699 c-33 -16 -278 -132 -544 -257 -416 -195 -485 -231 -491
-252 -31 -108 -44 -143 -74 -193 l-34 -57 51 29 c29 15 93 50 142 76 50 27
164 89 255 138 202 110 230 125 400 217 258 139 375 203 386 211 14 11 -5 119
-20 118 -6 0 -38 -13 -71 -30z"/>
<path d="M5595 3654 c-27 -14 -95 -45 -150 -71 -55 -25 -179 -83 -275 -128
-96 -45 -200 -94 -230 -108 -30 -14 -104 -48 -165 -77 -60 -29 -133 -63 -162
-76 l-52 -24 -3 -68 -3 -67 -14 58 c-8 31 -15 57 -16 57 -3 0 -125 -56 -247
-113 l-97 -46 -38 19 c-21 10 -240 113 -487 229 -247 117 -476 226 -509 243
-69 34 -68 31 15 -64 62 -72 151 -214 185 -298 19 -47 36 -73 53 -82 14 -7 50
-27 80 -44 30 -17 89 -49 130 -71 41 -22 188 -102 327 -177 138 -75 254 -136
256 -136 3 0 159 84 348 186 189 103 382 207 429 232 47 25 220 119 385 208
l300 163 3 140 c1 78 -1 141 -5 140 -5 0 -30 -11 -58 -25z"/>
<path d="M880 3547 l0 -74 173 -93 c94 -51 228 -124 297 -161 69 -37 238 -128
375 -203 l250 -135 3 106 c1 58 -1 110 -5 114 -5 5 -143 72 -308 149 -165 78
-325 153 -355 167 -185 87 -264 124 -335 158 -44 20 -83 39 -87 42 -5 2 -8
-29 -8 -70z"/>
<path d="M7580 3196 c-107 -51 -298 -141 -425 -200 -331 -155 -522 -245 -669
-315 -70 -34 -130 -61 -131 -61 -2 0 -70 -32 -152 -71 -81 -39 -173 -82 -203
-96 -182 -84 -589 -276 -725 -343 -88 -43 -212 -101 -275 -130 -63 -28 -188
-86 -277 -128 l-163 -76 0 -178 c0 -98 2 -178 4 -178 3 0 76 39 163 86 87 47
259 140 383 206 124 66 232 126 240 133 8 7 42 26 75 42 76 38 170 88 470 250
132 72 330 179 440 238 110 59 214 115 230 125 17 10 64 35 105 58 68 36 448
241 630 340 41 22 163 88 270 145 126 68 199 114 207 129 14 25 18 119 6 117
-5 0 -96 -42 -203 -93z"/>
<path d="M5485 3139 c-93 -44 -192 -91 -220 -104 -27 -12 -239 -111 -470 -220
-231 -108 -462 -217 -514 -241 -51 -24 -95 -44 -98 -44 -2 0 -173 79 -379 176
-206 97 -377 175 -379 173 -2 -2 1 -24 5 -49 5 -25 12 -99 16 -166 l7 -120
285 -155 c419 -226 444 -239 456 -239 6 0 74 34 151 76 148 80 737 399 865
467 41 23 155 85 254 139 98 54 182 98 187 98 5 0 9 65 9 145 0 80 -1 145 -2
145 -2 0 -79 -37 -173 -81z"/>
<path d="M882 3079 l3 -71 95 -52 c52 -29 190 -103 305 -166 253 -136 242
-130 486 -263 108 -59 199 -107 202 -107 4 0 7 49 7 109 l0 109 -42 20 c-24
11 -164 77 -313 147 -148 70 -317 150 -375 177 -58 27 -161 76 -230 109 -69
32 -129 59 -133 59 -4 0 -7 -32 -5 -71z"/>
<path d="M6185 2790 c-27 -4 -146 -8 -264 -9 l-214 -2 -226 -106 c-312 -146
-517 -242 -786 -368 -126 -59 -286 -134 -354 -166 -68 -33 -134 -62 -146 -65
-13 -3 -58 12 -121 41 -54 26 -130 62 -169 80 -38 18 -157 74 -263 124 -106
50 -197 89 -201 86 -5 -2 -12 -26 -15 -52 -4 -27 -19 -87 -33 -136 -14 -48
-24 -89 -22 -91 2 -2 173 -95 379 -206 206 -111 390 -211 407 -222 l33 -20
127 69 128 69 32 85 c17 46 42 125 55 174 l23 90 3 -143 3 -144 72 40 c40 21
113 61 162 87 50 26 104 56 120 65 17 10 194 106 395 215 993 536 958 517 935
514 -6 -1 -32 -5 -60 -9z"/>
<path d="M7600 2742 c-52 -26 -126 -61 -165 -79 -38 -17 -131 -61 -205 -96
-74 -35 -193 -91 -265 -125 -71 -33 -191 -89 -265 -124 -74 -35 -307 -145
-518 -243 l-383 -180 247 -3 246 -2 157 84 c86 46 341 184 566 306 226 122
448 243 495 268 173 92 156 73 201 220 10 31 -1 28 -111 -26z"/>
<path d="M880 2618 l0 -73 83 -44 c93 -50 998 -541 1010 -548 4 -2 7 47 7 109
l0 113 -287 135 c-159 74 -346 162 -418 196 -345 164 -388 184 -391 184 -2 0
-4 -33 -4 -72z"/>
<path d="M880 2151 l0 -69 148 -79 c431 -234 768 -416 855 -462 l97 -52 0 111
0 111 -117 56 c-65 30 -145 68 -178 83 -33 15 -179 84 -325 153 -423 199 -462
217 -471 217 -5 0 -9 -31 -9 -69z"/>
<path d="M3291 1973 c-10 -21 -44 -73 -75 -117 -31 -43 -56 -80 -54 -81 2 -1
89 -49 193 -105 105 -57 318 -172 475 -257 l285 -154 28 33 c61 72 247 374
247 401 0 3 -47 -17 -105 -44 l-105 -49 -58 29 c-32 16 -103 49 -157 74 -55
25 -161 74 -235 110 -214 102 -352 168 -387 183 -32 14 -33 14 -52 -23z"/>
<path d="M5620 1809 c-19 -10 -42 -21 -50 -25 -8 -3 -52 -24 -97 -45 -44 -22
-84 -39 -87 -39 -4 0 -89 -40 -189 -88 -100 -49 -206 -99 -235 -111 -28 -12
-131 -59 -227 -106 l-175 -84 0 -180 0 -180 53 28 c28 16 158 86 287 156 129
70 269 145 310 167 41 23 118 64 170 93 52 29 135 73 183 99 49 26 90 53 93
60 3 7 3 71 2 143 l-3 131 -35 -19z"/>
<path d="M882 1688 l3 -72 255 -139 c140 -76 307 -166 370 -199 63 -33 129
-69 145 -78 33 -20 313 -171 955 -518 36 -19 79 -42 95 -52 17 -10 74 -41 127
-69 l98 -52 67 17 c70 17 256 79 283 94 11 6 0 15 -40 33 -30 13 -147 68 -260
122 -261 124 -333 158 -620 293 -129 60 -332 156 -450 212 -118 56 -228 106
-245 112 -16 6 -34 14 -40 19 -9 6 -281 137 -490 234 -38 18 -110 51 -158 74
-49 22 -90 41 -93 41 -3 0 -4 -32 -2 -72z"/>
<path d="M3017 1641 c-43 -37 -113 -84 -166 -110 -24 -13 -39 -26 -35 -31 5
-4 149 -83 319 -175 604 -326 658 -355 672 -367 9 -7 27 5 65 39 69 63 187
186 188 194 0 4 -17 14 -37 22 -21 8 -94 42 -163 75 -158 76 -619 293 -728
343 l-82 38 -33 -28z"/>
<path d="M2465 1419 c-33 -5 -118 -12 -188 -16 l-128 -8 113 -61 c62 -34 147
-80 188 -102 41 -22 280 -151 529 -286 250 -135 459 -246 464 -246 19 0 269
158 281 178 3 5 -34 28 -82 50 -48 22 -145 68 -217 102 -71 34 -148 70 -170
80 -22 10 -184 86 -359 169 -184 87 -330 150 -345 150 -14 -1 -53 -5 -86 -10z"/>
<path d="M5505 1294 c-77 -36 -171 -81 -210 -99 -38 -18 -216 -101 -395 -185
-179 -83 -328 -155 -333 -159 -4 -4 -6 -87 -5 -184 l3 -176 320 172 c419 226
454 245 628 339 l147 80 0 139 c0 76 -3 139 -7 139 -5 -1 -71 -30 -148 -66z"/>
<path d="M880 1227 l0 -73 203 -109 c111 -60 294 -159 407 -220 113 -62 246
-134 295 -160 50 -26 121 -65 158 -86 38 -22 72 -39 75 -39 3 0 36 -18 73 -40
l67 -40 218 1 c121 0 227 4 238 8 14 5 -2 16 -70 48 -49 23 -141 66 -204 96
-230 109 -468 221 -610 287 -80 37 -203 96 -275 130 -71 34 -157 75 -190 90
-33 15 -114 54 -180 85 -66 31 -139 65 -162 76 l-43 18 0 -72z"/>
<path d="M5615 881 c-22 -10 -85 -40 -140 -66 -55 -26 -156 -73 -225 -105
-136 -63 -322 -151 -440 -209 l-75 -36 315 -3 315 -2 139 74 c76 41 142 78
147 83 5 5 8 71 7 146 l-3 136 -40 -18z"/>
<path d="M882 759 l3 -71 211 -114 212 -114 178 2 179 3 -85 41 c-47 23 -164
78 -260 124 -96 45 -231 109 -299 141 -68 33 -128 59 -133 59 -5 0 -8 -32 -6
-71z"/>
</g>
</svg>
